<svg width="17" height="16" viewBox="0 0 17 16" fill="none" xmlns="http://www.w3.org/2000/svg">
<g clip-path="url(#clip0_110_414)">
<path d="M14.4179 4.74107C14.428 4.88319 14.428 5.02535 14.428 5.16747C14.428 9.50247 11.1507 14.4974 5.16084 14.4974C3.31546 14.4974 1.6012 13.9593 0.15918 13.0253C0.421373 13.0558 0.673447 13.0659 0.945728 13.0659C2.46839 13.0659 3.87008 12.5482 4.98941 11.6649C3.55748 11.6345 2.35748 10.6903 1.94403 9.39081C2.14573 9.42125 2.34739 9.44156 2.55918 9.44156C2.8516 9.44156 3.14406 9.40094 3.41631 9.32991C1.92388 9.02531 0.804528 7.70553 0.804528 6.11163V6.07103C1.23812 6.31469 1.74236 6.46697 2.27678 6.48725C1.39947 5.89841 0.824704 4.89335 0.824704 3.75628C0.824704 3.14716 0.986018 2.58878 1.26839 2.10147C2.87175 4.09131 5.28183 5.39078 7.98431 5.53294C7.9339 5.28928 7.90364 5.0355 7.90364 4.78169C7.90364 2.97457 9.35574 1.5025 11.1608 1.5025C12.0986 1.5025 12.9456 1.89844 13.5406 2.53803C14.2767 2.39591 14.9826 2.12178 15.6078 1.74616C15.3658 2.5076 14.8515 3.14719 14.1759 3.55325C14.8313 3.48222 15.4666 3.29944 16.0515 3.04566C15.6079 3.69538 15.0532 4.27403 14.4179 4.74107Z" fill="black"/>
</g>
<defs>
<clipPath id="clip0_110_414">
<rect width="15.8924" height="16" fill="white" transform="translate(0.15918)"/>
</clipPath>
</defs>
</svg>
